<?xml version="1.0" encoding="UTF-8"?>
<svg id="Layer_1" xmlns="http://www.w3.org/2000/svg" xmlns:xlink="http://www.w3.org/1999/xlink" version="1.1" viewBox="0 0 20 20">
  <!-- Generator: Adobe Illustrator 29.1.0, SVG Export Plug-In . SVG Version: 2.1.0 Build 142)  -->
  <defs>
    <style>
      .st0 {
        fill: url(#linear-gradient);
      }
    </style>
    <linearGradient id="linear-gradient" x1="10" y1="18.7" x2="10" y2="1.8" gradientTransform="translate(0 19.9) scale(1 -1)" gradientUnits="userSpaceOnUse">
      <stop offset="0" stop-color="#3d9cff"/>
      <stop offset="1" stop-color="#1185fe"/>
    </linearGradient>
  </defs>
  <path class="st0" d="M4.3,2.4c2.3,1.7,4.8,5.2,5.7,7.1.9-1.9,3.4-5.4,5.7-7.1,1.7-1.2,4.3-2.2,4.3.9s-.4,5.1-.6,5.9c-.7,2.6-3.3,3.2-5.6,2.8,4,.7,5.1,3,2.9,5.2-4.2,4.3-6.1-1.1-6.5-2.5,0-.3-.1-.4-.1-.3,0-.1,0,0-.1.3-.5,1.4-2.3,6.8-6.5,2.5-2.2-2.3-1.2-4.6,2.9-5.2-2.3.4-4.9-.3-5.6-2.8-.2-.7-.6-5.3-.6-5.9C0,.2,2.7,1.1,4.3,2.4h0Z"/>
</svg>