<?xml version="1.0" encoding="UTF-8"?>
<svg id="Layer_1" xmlns="http://www.w3.org/2000/svg" xmlns:xlink="http://www.w3.org/1999/xlink" version="1.1" viewBox="0 0 20 20">
  <!-- Generator: Adobe Illustrator 29.1.0, SVG Export Plug-In . SVG Version: 2.1.0 Build 142)  -->
  <defs>
    <style>
      .st0 {
        fill: #ec008c;
      }

      .st1 {
        clip-path: url(#clippath-1);
      }

      .st2 {
        clip-path: url(#clippath);
      }
    </style>
    <clipPath id="clippath">
      <path class="st0" d="M5.95.05c-1.1,0-1.8.2-2.4.5-.7.3-1.2.6-1.8,1.2-.6.6-.9,1.1-1.2,1.8-.2.6-.4,1.4-.5,2.4v8.2c0,1.1.2,1.8.5,2.4.3.7.6,1.2,1.2,1.8.6.6,1.1.9,1.8,1.1.6.2,1.4.4,2.4.5h8.2c1.1,0,1.8-.2,2.4-.5.7-.3,1.2-.6,1.8-1.2.6-.6.9-1.1,1.1-1.8.2-.6.4-1.4.5-2.4V5.85c0-1.1-.2-1.8-.5-2.4-.3-.7-.6-1.2-1.2-1.8-.6-.6-1.1-.9-1.8-1.1-.6-.2-1.4-.4-2.4-.5H5.95M6.05,18.15c-1,0-1.5-.2-1.9-.3-.5-.2-.8-.4-1.2-.7-.4-.3-.6-.7-.8-1.1-.1-.4-.3-.9-.3-1.9V6.15c0-1,.2-1.5.3-1.9.2-.5.4-.8.7-1.2s.7-.6,1.1-.8c.4-.1.9-.3,1.9-.3h8c1,0,1.5.2,1.9.3.5.2.8.4,1.2.7.4.3.6.7.8,1.1.1.4.3.9.3,1.9v8c0,1-.2,1.5-.3,1.9-.2.5-.4.8-.7,1.2-.3.3-.7.6-1.1.8-.4.1-.9.3-1.9.3H5.95M14.15,4.85c0,.7.5,1.2,1.2,1.2s1.2-.5,1.2-1.2-.5-1.2-1.2-1.2-1.2.5-1.2,1.2M4.95,10.05c0,2.8,2.3,5.1,5.1,5.1s5.1-2.3,5.1-5.1-2.3-5.1-5.1-5.1-5.1,2.3-5.1,5.1M6.75,10.05c0-1.8,1.5-3.3,3.3-3.3s3.3,1.5,3.3,3.3-1.5,3.3-3.3,3.3-3.3-1.5-3.3-3.3Z"/>
    </clipPath>
    <clipPath id="clippath-1">
      <rect class="st0" x="-.05" y=".05" width="20" height="20"/>
    </clipPath>
    <clipPath id="clippath-2">
      <rect class="st0" x="-5.05" y="-4.95" width="30" height="30"/>
    </clipPath>
  </defs>
  <path class="st0" d="M5.95.05c-1.1,0-1.8.2-2.4.5-.7.3-1.2.6-1.8,1.2-.6.6-.9,1.1-1.2,1.8-.2.6-.4,1.4-.5,2.4v8.2c0,1.1.2,1.8.5,2.4.3.7.6,1.2,1.2,1.8.6.6,1.1.9,1.8,1.1.6.2,1.4.4,2.4.5h8.2c1.1,0,1.8-.2,2.4-.5.7-.3,1.2-.6,1.8-1.2.6-.6.9-1.1,1.1-1.8.2-.6.4-1.4.5-2.4V5.85c0-1.1-.2-1.8-.5-2.4-.3-.7-.6-1.2-1.2-1.8-.6-.6-1.1-.9-1.8-1.1-.6-.2-1.4-.4-2.4-.5H5.95M6.05,18.15c-1,0-1.5-.2-1.9-.3-.5-.2-.8-.4-1.2-.7-.4-.3-.6-.7-.8-1.1-.1-.4-.3-.9-.3-1.9V6.15c0-1,.2-1.5.3-1.9.2-.5.4-.8.7-1.2s.7-.6,1.1-.8c.4-.1.9-.3,1.9-.3h8c1,0,1.5.2,1.9.3.5.2.8.4,1.2.7.4.3.6.7.8,1.1.1.4.3.9.3,1.9v8c0,1-.2,1.5-.3,1.9-.2.5-.4.8-.7,1.2-.3.3-.7.6-1.1.8-.4.1-.9.3-1.9.3H5.95M14.15,4.85c0,.7.5,1.2,1.2,1.2s1.2-.5,1.2-1.2-.5-1.2-1.2-1.2-1.2.5-1.2,1.2M4.95,10.05c0,2.8,2.3,5.1,5.1,5.1s5.1-2.3,5.1-5.1-2.3-5.1-5.1-5.1-5.1,2.3-5.1,5.1M6.75,10.05c0-1.8,1.5-3.3,3.3-3.3s3.3,1.5,3.3,3.3-1.5,3.3-3.3,3.3-3.3-1.5-3.3-3.3Z"/>
  <g class="st2">
    <g>
      <rect class="st0" x="-.05" y=".05" width="20" height="20"/>
      <g class="st1">
        <rect class="st0" x="-5.05" y="-4.95" width="30" height="30"/>
      </g>
    </g>
  </g>
</svg>