<?xml version="1.0" encoding="UTF-8"?>
<svg id="Layer_1" xmlns="http://www.w3.org/2000/svg" version="1.1" viewBox="0 0 153.43 79.45">
  <!-- Generator: Adobe Illustrator 29.1.0, SVG Export Plug-In . SVG Version: 2.1.0 Build 142)  -->
  <defs>
    <style>
      .st0 {
        fill: #fff;
      }
    </style>
  </defs>
  <rect width="153.43" height="79.45"/>
  <g>
    <path class="st0" d="M21.14,26.39c-3.82,0-6.08-2.96-6.08-7.22s2.26-7.22,6.08-7.22,6.08,2.96,6.08,7.22-2.26,7.22-6.08,7.22ZM21.14,14.72c-2.26,0-3.2,1.94-3.2,4.44s.94,4.44,3.2,4.44,3.2-1.94,3.2-4.44-.94-4.44-3.2-4.44Z"/>
    <path class="st0" d="M35.89,21.21h-3.08v4.96h-2.8v-14h6.12c2.64,0,4.82,1.46,4.82,4.44,0,3.24-2.16,4.6-5.06,4.6ZM36.03,14.88h-3.22v3.6h3.26c1.3,0,2-.6,2-1.82s-.8-1.78-2.04-1.78Z"/>
    <path class="st0" d="M43.27,26.17v-14h9.72v2.74h-6.92v2.42h4.02v2.72h-4.02v3.38h7.22v2.74h-10.02Z"/>
    <path class="st0" d="M64.9,26.17l-5.14-7.64c-.34-.52-.8-1.22-.98-1.58,0,.52.04,2.28.04,3.06v6.16h-2.76v-14h2.68l4.96,7.4c.34.52.8,1.22.98,1.58,0-.52-.04-2.28-.04-3.06v-5.92h2.76v14h-2.5Z"/>
    <path class="st0" d="M27.7,46.17h-2.74l-1.72-7.2c-.2-.84-.4-1.88-.48-2.4-.06.52-.26,1.58-.46,2.4l-1.76,7.2h-2.62l-2.92-14h2.92l1.22,6.82c.12.68.28,1.72.34,2.3.1-.58.32-1.62.48-2.3l1.64-6.82h2.44l1.66,6.82c.16.68.38,1.72.48,2.3.06-.58.22-1.64.34-2.3l1.22-6.82h2.88l-2.92,14Z"/>
    <path class="st0" d="M38.33,46.39c-3.82,0-6.08-2.96-6.08-7.22s2.26-7.22,6.08-7.22,6.08,2.96,6.08,7.22-2.26,7.22-6.08,7.22ZM38.33,34.72c-2.26,0-3.2,1.94-3.2,4.44s.94,4.44,3.2,4.44,3.2-1.94,3.2-4.44-.94-4.44-3.2-4.44Z"/>
    <path class="st0" d="M55.31,46.17l-2.5-5.04h-2.82v5.04h-2.8v-14h6.52c2.64,0,4.82,1.46,4.82,4.44,0,2.1-.9,3.42-2.68,4.12l2.68,5.44h-3.22ZM53.65,34.88h-3.66v3.6h3.66c1.3,0,2-.6,2-1.82s-.76-1.78-2-1.78Z"/>
    <path class="st0" d="M70.19,46.17l-3.8-6.76-2.24,2.64v4.12h-2.8v-14h2.8v3.98c0,.52-.02,1.78-.04,2.22.2-.32.72-.96,1.1-1.42l3.92-4.78h3.38l-4.1,4.84,5.14,9.16h-3.36Z"/>
    <path class="st0" d="M80.2,46.39c-2.34,0-4.38-.98-5.44-2.54l2.02-1.8c.98,1.14,2.24,1.6,3.58,1.6,1.66,0,2.44-.46,2.44-1.52,0-.9-.48-1.3-3.12-1.9-2.58-.6-4.38-1.42-4.38-4.18,0-2.54,2.24-4.1,5-4.1,2.18,0,3.78.82,5.1,2.2l-2.02,1.96c-.9-.92-1.9-1.44-3.18-1.44-1.5,0-2,.64-2,1.26,0,.88.6,1.16,2.82,1.68,2.22.52,4.68,1.28,4.68,4.32,0,2.66-1.68,4.46-5.5,4.46Z"/>
    <path class="st0" d="M97,46.17v-5.88h-5.74v5.88h-2.8v-14h2.8v5.36h5.74v-5.36h2.8v14h-2.8Z"/>
    <path class="st0" d="M108.66,46.39c-3.82,0-6.08-2.96-6.08-7.22s2.26-7.22,6.08-7.22,6.08,2.96,6.08,7.22-2.26,7.22-6.08,7.22ZM108.66,34.72c-2.26,0-3.2,1.94-3.2,4.44s.94,4.44,3.2,4.44,3.2-1.94,3.2-4.44-.94-4.44-3.2-4.44Z"/>
    <path class="st0" d="M123.41,41.21h-3.08v4.96h-2.8v-14h6.12c2.64,0,4.82,1.46,4.82,4.44,0,3.24-2.16,4.6-5.06,4.6ZM123.55,34.88h-3.22v3.6h3.26c1.3,0,2-.6,2-1.82s-.8-1.78-2.04-1.78Z"/>
    <path class="st0" d="M24.64,66.17l-5.14-7.64c-.34-.52-.8-1.22-.98-1.58,0,.52.04,2.28.04,3.06v6.16h-2.76v-14h2.68l4.96,7.4c.34.52.8,1.22.98,1.58,0-.52-.04-2.28-.04-3.06v-5.92h2.76v14h-2.5Z"/>
    <path class="st0" d="M30.62,66.17v-14h9.72v2.74h-6.92v2.42h4.02v2.72h-4.02v3.38h7.22v2.74h-10.02Z"/>
    <path class="st0" d="M49.35,54.92v11.24h-2.8v-11.24h-4.02v-2.76h10.84v2.76h-4.02Z"/>
    <path class="st0" d="M68.03,66.17h-2.74l-1.72-7.2c-.2-.84-.4-1.88-.48-2.4-.06.52-.26,1.58-.46,2.4l-1.76,7.2h-2.62l-2.92-14h2.92l1.22,6.82c.12.68.28,1.72.34,2.3.1-.58.32-1.62.48-2.3l1.64-6.82h2.44l1.66,6.82c.16.68.38,1.72.48,2.3.06-.58.22-1.64.34-2.3l1.22-6.82h2.88l-2.92,14Z"/>
    <path class="st0" d="M78.65,66.39c-3.82,0-6.08-2.96-6.08-7.22s2.26-7.22,6.08-7.22,6.08,2.96,6.08,7.22-2.26,7.22-6.08,7.22ZM78.65,54.72c-2.26,0-3.2,1.94-3.2,4.44s.94,4.44,3.2,4.44,3.2-1.94,3.2-4.44-.94-4.44-3.2-4.44Z"/>
    <path class="st0" d="M95.64,66.17l-2.5-5.04h-2.82v5.04h-2.8v-14h6.52c2.64,0,4.82,1.46,4.82,4.44,0,2.1-.9,3.42-2.68,4.12l2.68,5.44h-3.22ZM93.98,54.88h-3.66v3.6h3.66c1.3,0,2-.6,2-1.82s-.76-1.78-2-1.78Z"/>
    <path class="st0" d="M110.52,66.17l-3.8-6.76-2.24,2.64v4.12h-2.8v-14h2.8v3.98c0,.52-.02,1.78-.04,2.22.2-.32.72-.96,1.1-1.42l3.92-4.78h3.38l-4.1,4.84,5.14,9.16h-3.36Z"/>
  </g>
</svg>