<?xml version="1.0" encoding="UTF-8"?>
<svg id="Layer_1" xmlns="http://www.w3.org/2000/svg" version="1.1" viewBox="0 0 20 20">
  <!-- Generator: Adobe Illustrator 29.1.0, SVG Export Plug-In . SVG Version: 2.1.0 Build 142)  -->
  <defs>
    <style>
      .st0 {
        fill: #fff;
      }

      .st0, .st1, .st2, .st3 {
        fill-rule: evenodd;
      }

      .st1 {
        fill: #212121;
      }

      .st2 {
        fill: #81d4fa;
      }

      .st3 {
        fill: #ec407a;
      }
    </style>
  </defs>
  <path class="st1" d="M2.7,0h14.6C18.8,0,20,1.2,20,2.7v14.6c0,1.5-1.2,2.7-2.7,2.7H2.7c-1.5,0-2.7-1.2-2.7-2.7V2.7C0,1.2,1.2,0,2.7,0Z"/>
  <path class="st3" d="M12.9,8.1c.9.6,1.9,1,3.1,1v-2.2c-.2,0-.4,0-.7,0v1.8c-1.2,0-2.2-.4-3.1-1v4.5c0,2.3-1.8,4.1-4.1,4.1s-1.6-.3-2.3-.7c.7.8,1.8,1.2,2.9,1.2,2.3,0,4.1-1.8,4.1-4.1v-4.5h0ZM13.7,5.9c-.4-.5-.7-1.1-.8-1.8v-.3h-.6c.2.9.7,1.6,1.4,2.1h0ZM7.3,13.8c-.3-.3-.4-.7-.4-1.1,0-1,.8-1.9,1.9-1.9s.4,0,.6,0v-2.3c-.2,0-.4,0-.7,0v1.8c-.2,0-.4,0-.6,0-1,0-1.9.8-1.9,1.9,0,.7.4,1.4,1,1.7Z"/>
  <path class="st0" d="M12.2,7.6c.9.6,1.9,1,3.1,1v-1.8c-.6-.1-1.2-.5-1.6-.9-.7-.5-1.3-1.2-1.4-2.1h-1.6v8.9c0,1-.8,1.9-1.9,1.9s-1.2-.3-1.5-.7c-.6-.3-1-.9-1-1.7,0-1,.8-1.9,1.9-1.9s.4,0,.6,0v-1.8c-2.2,0-4,1.9-4,4.1s.4,2.1,1.2,2.9c.7.4,1.4.7,2.3.7,2.3,0,4.1-1.8,4.1-4.1v-4.5h0Z"/>
  <path class="st2" d="M15.3,6.8v-.5c-.6,0-1.2-.2-1.6-.5.4.5,1,.8,1.6.9ZM12.3,3.8c0,0,0-.2,0-.3v-.3h-2.2v8.9c0,1-.8,1.9-1.9,1.9s-.6,0-.8-.2c.3.5.9.7,1.5.7,1,0,1.9-.8,1.9-1.9V3.8h1.6ZM8.7,8.5v-.5c-.2,0-.4,0-.6,0-2.3,0-4.1,1.8-4.1,4.1s.7,2.7,1.8,3.4c-.7-.7-1.2-1.8-1.2-2.9,0-2.2,1.8-4.1,4-4.1Z"/>
</svg>