<?xml version="1.0" encoding="UTF-8"?>
<svg id="Layer_1" xmlns="http://www.w3.org/2000/svg" version="1.1" viewBox="0 0 20 20">
  <!-- Generator: Adobe Illustrator 29.1.0, SVG Export Plug-In . SVG Version: 2.1.0 Build 142)  -->
  <defs>
    <style>
      .st0 {
        fill: #1d9bf0;
      }
    </style>
  </defs>
  <path class="st0" d="M18,5.9c0,.2,0,.4,0,.5,0,5.4-4.1,11.7-11.7,11.7h0c-2.2,0-4.4-.6-6.3-1.8.3,0,.7,0,1,0,1.8,0,3.6-.6,5.1-1.8-1.8,0-3.3-1.2-3.8-2.8.6.1,1.2,0,1.9,0-1.9-.4-3.3-2.1-3.3-4h0c.6.3,1.2.4,1.9.5C.9,6.9.3,4.5,1.4,2.6c2.1,2.6,5.2,4.1,8.5,4.3-.3-1.4.1-2.9,1.2-3.9,1.7-1.6,4.3-1.5,5.8.2.9-.2,1.8-.5,2.6-1-.3.9-.9,1.8-1.8,2.3.8,0,1.6-.3,2.4-.6-.6.8-1.2,1.5-2,2.1h0Z"/>
</svg>