<?xml version="1.0" encoding="UTF-8"?>
<svg id="Layer_1" xmlns="http://www.w3.org/2000/svg" xmlns:serif="http://www.serif.com/" version="1.1" viewBox="0 0 20 20">
  <!-- Generator: Adobe Illustrator 29.1.0, SVG Export Plug-In . SVG Version: 2.1.0 Build 142)  -->
  <defs>
    <style>
      .st0 {
        fill: #ed1f24;
      }

      .st1 {
        fill: #fff;
      }
    </style>
  </defs>
  <path class="st0" d="M19.6,5.2c-.2-.9-.9-1.5-1.8-1.8-1.6-.4-7.8-.4-7.8-.4,0,0-6.3,0-7.8.4-.9.2-1.5.9-1.8,1.8C0,6.7,0,10,0,10,0,10,0,13.3.4,14.8c.2.9.9,1.5,1.8,1.8,1.6.4,7.8.4,7.8.4,0,0,6.3,0,7.8-.4.9-.2,1.5-.9,1.8-1.8.4-1.6.4-4.8.4-4.8,0,0,0-3.3-.4-4.8h0Z"/>
  <path class="st1" d="M8,13l5.2-3-5.2-3v6h0Z"/>
</svg>